# Blender v2.78 (sub 0) OBJ File: 'model.blend'
# www.blender.org
g finish_Cylinder.002
v 0.000000 -5.969172 -0.708327
v 0.000000 0.999304 -0.708327
v 0.218885 -5.969172 -0.673659
v 0.218885 0.999304 -0.673659
v 0.416344 -5.969172 -0.573049
v 0.416344 0.999304 -0.573049
v 0.573049 -5.969172 -0.416344
v 0.573049 0.999304 -0.416344
v 0.673659 -5.969172 -0.218885
v 0.673659 0.999304 -0.218885
v 0.708327 -5.969172 -0.000000
v 0.708327 0.999304 -0.000000
v 0.673659 -5.969172 0.218885
v 0.673659 0.999304 0.218885
v 0.573049 -5.969172 0.416344
v 0.573049 0.999304 0.416344
v 0.416344 -5.969172 0.573049
v 0.416344 0.999304 0.573049
v 0.218885 -5.969172 0.673659
v 0.218885 0.999304 0.673659
v -0.000000 -5.969172 0.708327
v -0.000000 0.999304 0.708327
v -0.218885 -5.969172 0.673659
v -0.218885 0.999304 0.673659
v -0.416345 -5.969172 0.573049
v -0.416345 0.999304 0.573049
v -0.573049 -5.969172 0.416344
v -0.573049 0.999304 0.416344
v -0.673660 -5.969172 0.218885
v -0.673660 0.999304 0.218885
v -0.708327 -5.969172 -0.000001
v -0.708327 0.999304 -0.000001
v -0.673659 -5.969172 -0.218886
v -0.673659 0.999304 -0.218886
v -0.573048 -5.969172 -0.416345
v -0.573048 0.999304 -0.416345
v -0.416344 -5.969172 -0.573050
v -0.416344 0.999304 -0.573050
v -0.218884 -5.969172 -0.673660
v -0.218884 0.999304 -0.673660
v 0.000000 0.999304 -0.633323
v 0.195708 0.999304 -0.602326
v 0.372258 0.999304 -0.512369
v 0.512369 0.999304 -0.372258
v 0.602326 0.999304 -0.195708
v 0.633323 0.999304 -0.000000
v 0.602326 0.999304 0.195707
v 0.512369 0.999304 0.372258
v 0.372258 0.999304 0.512369
v 0.195707 0.999304 0.602326
v -0.000000 0.999304 0.633323
v -0.195708 0.999304 0.602325
v -0.372258 0.999304 0.512369
v -0.512369 0.999304 0.372257
v -0.602326 0.999304 0.195707
v -0.633323 0.999304 -0.000001
v -0.602326 0.999304 -0.195708
v -0.512369 0.999304 -0.372259
v -0.372257 0.999304 -0.512370
v -0.195707 0.999304 -0.602326
v 0.000000 -2.387107 -0.633323
v 0.195708 -2.387107 -0.602326
v 0.372258 -2.387107 -0.512369
v 0.512369 -2.387107 -0.372258
v 0.602326 -2.387107 -0.195708
v 0.633323 -2.387107 -0.000000
v 0.602326 -2.387107 0.195707
v 0.512369 -2.387107 0.372258
v 0.372258 -2.387107 0.512369
v 0.195707 -2.387107 0.602326
v -0.000000 -2.387107 0.633323
v -0.195708 -2.387107 0.602325
v -0.372258 -2.387107 0.512369
v -0.512369 -2.387107 0.372257
v -0.602326 -2.387107 0.195707
v -0.633323 -2.387107 -0.000001
v -0.602326 -2.387107 -0.195708
v -0.512369 -2.387107 -0.372259
v -0.372257 -2.387107 -0.512370
v -0.195707 -2.387107 -0.602326
v 0.000000 0.969898 -0.708327
v 0.218885 0.969898 -0.673659
v 0.416344 0.969898 -0.573049
v 0.573049 0.969898 -0.416344
v 0.673659 0.969898 -0.218885
v 0.708327 0.969898 -0.000000
v 0.673659 0.969898 0.218885
v 0.573049 0.969898 0.416344
v 0.416344 0.969898 0.573049
v 0.218885 0.969898 0.673659
v -0.000000 0.969898 0.708327
v -0.218885 0.969898 0.673659
v -0.416345 0.969898 0.573049
v -0.573049 0.969898 0.416344
v -0.673660 0.969898 0.218885
v -0.708327 0.969898 -0.000001
v -0.673659 0.969898 -0.218886
v -0.573048 0.969898 -0.416345
v -0.416344 0.969898 -0.573050
v -0.218884 0.969898 -0.673660
v 0.602326 0.974357 -0.195708
v 0.633323 0.974357 -0.000000
v -0.195707 0.974357 -0.602326
v 0.000000 0.974357 -0.633323
v -0.372258 0.974357 0.512369
v -0.512369 0.974357 0.372257
v 0.602326 0.974357 0.195707
v -0.602326 0.974357 0.195707
v 0.512369 0.974357 0.372258
v -0.633323 0.974357 -0.000001
v 0.372258 0.974357 0.512369
v 0.195708 0.974357 -0.602326
v -0.602326 0.974357 -0.195708
v 0.195707 0.974357 0.602326
v 0.372258 0.974357 -0.512369
v -0.512369 0.974357 -0.372259
v -0.000000 0.974357 0.633323
v 0.512369 0.974357 -0.372258
v -0.372257 0.974357 -0.512370
v -0.195708 0.974357 0.602325
v 0.216156 0.999304 -0.665258
v 0.411152 0.999304 -0.565903
v 0.665258 0.999304 0.216156
v 0.565903 0.999304 0.411152
v -0.216156 0.999304 0.665258
v -0.411153 0.999304 0.565902
v -0.665258 0.999304 -0.216156
v -0.565902 0.999304 -0.411153
v 0.665258 0.999304 -0.216156
v 0.699494 0.999304 -0.000000
v 0.216155 0.999304 0.665258
v -0.000000 0.999304 0.699494
v -0.665259 0.999304 0.216155
v -0.699494 0.999304 -0.000001
v -0.216155 0.999304 -0.665259
v 0.000000 0.999304 -0.699494
v 0.565903 0.999304 -0.411152
v 0.411152 0.999304 0.565903
v -0.565903 0.999304 0.411152
v -0.411152 0.999304 -0.565903
v 0.200623 0.999304 -0.617454
v 0.617454 0.999304 0.200623
v -0.200623 0.999304 0.617454
v -0.617454 0.999304 -0.200624
v 0.617454 0.999304 -0.200623
v 0.200623 0.999304 0.617454
v -0.617454 0.999304 0.200622
v -0.200622 0.999304 -0.617454
v 0.381607 0.999304 -0.525238
v 0.525238 0.999304 0.381607
v -0.381608 0.999304 0.525237
v -0.525237 0.999304 -0.381608
v 0.649229 0.999304 -0.000000
v -0.000000 0.999304 0.649229
v -0.649229 0.999304 -0.000001
v 0.000000 0.999304 -0.649229
v 0.525238 0.999304 -0.381608
v 0.381607 0.999304 0.525238
v -0.525238 0.999304 0.381607
v -0.381607 0.999304 -0.525238
vn 0.0000 0.0000 -1.0000
vn 0.0000 0.6735 -0.7392
vn 0.2284 0.6735 -0.7030
vn 0.3090 0.0000 -0.9510
vn 0.4345 0.6735 -0.5980
vn 0.5878 0.0000 -0.8090
vn 0.5980 0.6735 -0.4345
vn 0.8090 0.0000 -0.5878
vn 0.7030 0.6735 -0.2284
vn 0.9510 0.0000 -0.3090
vn 0.7391 0.6735 0.0000
vn 1.0000 0.0000 0.0000
vn 0.7030 0.6735 0.2284
vn 0.9510 0.0000 0.3090
vn 0.5980 0.6735 0.4345
vn 0.8090 0.0000 0.5878
vn 0.4345 0.6735 0.5980
vn 0.5878 0.0000 0.8090
vn 0.2284 0.6735 0.7030
vn 0.3090 0.0000 0.9510
vn 0.0000 0.6735 0.7392
vn 0.0000 0.0000 1.0000
vn -0.2284 0.6735 0.7030
vn -0.3090 0.0000 0.9510
vn -0.4345 0.6735 0.5980
vn -0.5878 0.0000 0.8090
vn -0.5980 0.6735 0.4345
vn -0.8090 0.0000 0.5878
vn -0.7030 0.6735 0.2284
vn -0.9510 0.0000 0.3090
vn -0.7391 0.6735 0.0000
vn -1.0000 0.0000 0.0000
vn -0.7030 0.6735 -0.2284
vn -0.9510 0.0000 -0.3090
vn -0.5980 0.6735 -0.4345
vn -0.8090 0.0000 -0.5878
vn -0.4345 0.6735 -0.5980
vn -0.5878 0.0000 -0.8090
vn -0.2284 0.6735 -0.7030
vn -0.3090 0.0000 -0.9510
vn 0.0000 1.0000 0.0000
vn -0.2064 0.7440 0.6354
vn -0.3927 0.7440 0.5405
vn -0.6354 0.7440 -0.2064
vn -0.5405 0.7440 -0.3927
vn 0.2064 0.7441 -0.6354
vn 0.3927 0.7440 -0.5405
vn 0.6354 0.7440 0.2064
vn 0.5405 0.7440 0.3927
vn -0.6354 0.7440 0.2064
vn -0.6681 0.7440 0.0000
vn -0.2064 0.7440 -0.6354
vn 0.0000 0.7440 -0.6681
vn 0.6354 0.7440 -0.2064
vn 0.6681 0.7440 0.0000
vn 0.2064 0.7440 0.6354
vn 0.0000 0.7440 0.6681
vn -0.5405 0.7440 0.3927
vn -0.3927 0.7440 -0.5405
vn 0.5405 0.7440 -0.3927
vn 0.3927 0.7440 0.5405
s 1
f 81//1 2//2 4//3 82//4
f 82//4 4//3 6//5 83//6
f 83//6 6//5 8//7 84//8
f 84//8 8//7 10//9 85//10
f 85//10 10//9 12//11 86//12
f 86//12 12//11 14//13 87//14
f 87//14 14//13 16//15 88//16
f 88//16 16//15 18//17 89//18
f 89//18 18//17 20//19 90//20
f 90//20 20//19 22//21 91//22
f 91//22 22//21 24//23 92//24
f 92//24 24//23 26//25 93//26
f 93//26 26//25 28//27 94//28
f 94//28 28//27 30//29 95//30
f 95//30 30//29 32//31 96//32
f 96//32 32//31 34//33 97//34
f 97//34 34//33 36//35 98//36
f 98//36 36//35 38//37 99//38
f 99//38 38//37 40//39 100//40
f 100//40 40//39 2//2 81//1
f 149//41 141//41 42//42 43//43
f 150//41 142//41 47//44 48//45
f 151//41 143//41 52//46 53//47
f 152//41 144//41 57//48 58//49
f 153//41 145//41 45//50 46//51
f 154//41 146//41 50//52 51//53
f 155//41 147//41 55//54 56//55
f 156//41 148//41 60//56 41//57
f 157//41 149//41 43//43 44//58
f 158//41 150//41 48//45 49//59
f 141//41 156//41 41//57 42//42
f 159//41 151//41 53//47 54//60
f 160//41 152//41 58//49 59//61
f 142//41 153//41 46//51 47//44
f 143//41 154//41 51//53 52//46
f 144//41 155//41 56//55 57//48
f 145//41 157//41 44//58 45//50
f 146//41 158//41 49//59 50//52
f 147//41 159//41 54//60 55//54
f 148//41 160//41 59//61 60//56
f 102//32 101//30 65//30 66//32
f 104//22 103//20 80//20 61//22
f 106//8 105//6 73//6 74//8
f 107//34 102//32 66//32 67//34
f 108//10 106//8 74//8 75//10
f 109//36 107//34 67//34 68//36
f 110//12 108//10 75//10 76//12
f 111//38 109//36 68//36 69//38
f 112//24 104//22 61//22 62//24
f 113//14 110//12 76//12 77//14
f 114//40 111//38 69//38 70//40
f 115//26 112//24 62//24 63//26
f 116//16 113//14 77//14 78//16
f 117//1 114//40 70//40 71//1
f 118//28 115//26 63//26 64//28
f 119//18 116//16 78//16 79//18
f 120//4 117//1 71//1 72//4
f 101//30 118//28 64//28 65//30
f 103//20 119//18 79//18 80//20
f 105//6 120//4 72//4 73//6
f 39//40 100//40 81//1 1//1
f 37//38 99//38 100//40 39//40
f 35//36 98//36 99//38 37//38
f 33//34 97//34 98//36 35//36
f 31//32 96//32 97//34 33//34
f 29//30 95//30 96//32 31//32
f 27//28 94//28 95//30 29//30
f 25//26 93//26 94//28 27//28
f 23//24 92//24 93//26 25//26
f 21//22 91//22 92//24 23//24
f 19//20 90//20 91//22 21//22
f 17//18 89//18 90//20 19//20
f 15//16 88//16 89//18 17//18
f 13//14 87//14 88//16 15//16
f 11//12 86//12 87//14 13//14
f 9//10 85//10 86//12 11//12
f 7//8 84//8 85//10 9//10
f 5//6 83//6 84//8 7//8
f 3//4 82//4 83//6 5//6
f 1//1 81//1 82//4 3//4
f 53//47 52//46 120//4 105//6
f 60//56 59//61 119//18 103//20
f 45//50 44//58 118//28 101//30
f 52//46 51//53 117//1 120//4
f 59//61 58//49 116//16 119//18
f 44//58 43//43 115//26 118//28
f 51//53 50//52 114//40 117//1
f 58//49 57//48 113//14 116//16
f 43//43 42//42 112//24 115//26
f 50//52 49//59 111//38 114//40
f 57//48 56//55 110//12 113//14
f 42//42 41//57 104//22 112//24
f 49//59 48//45 109//36 111//38
f 56//55 55//54 108//10 110//12
f 48//45 47//44 107//34 109//36
f 55//54 54//60 106//8 108//10
f 47//44 46//51 102//32 107//34
f 54//60 53//47 105//6 106//8
f 41//57 60//56 103//20 104//22
f 46//51 45//50 101//30 102//32
f 40//39 38//37 140//41 135//41
f 30//29 28//27 139//41 133//41
f 20//19 18//17 138//41 131//41
f 10//9 8//7 137//41 129//41
f 34//33 32//31 134//41 127//41
f 24//23 22//21 132//41 125//41
f 14//13 12//11 130//41 123//41
f 38//37 36//35 128//41 140//41
f 28//27 26//25 126//41 139//41
f 4//3 2//2 136//41 121//41
f 18//17 16//15 124//41 138//41
f 8//7 6//5 122//41 137//41
f 2//2 40//39 135//41 136//41
f 32//31 30//29 133//41 134//41
f 22//21 20//19 131//41 132//41
f 12//11 10//9 129//41 130//41
f 36//35 34//33 127//41 128//41
f 26//25 24//23 125//41 126//41
f 16//15 14//13 123//41 124//41
f 6//5 4//3 121//41 122//41
f 135//41 140//41 160//41 148//41
f 133//41 139//41 159//41 147//41
f 131//41 138//41 158//41 146//41
f 129//41 137//41 157//41 145//41
f 127//41 134//41 155//41 144//41
f 125//41 132//41 154//41 143//41
f 123//41 130//41 153//41 142//41
f 140//41 128//41 152//41 160//41
f 139//41 126//41 151//41 159//41
f 121//41 136//41 156//41 141//41
f 138//41 124//41 150//41 158//41
f 137//41 122//41 149//41 157//41
f 136//41 135//41 148//41 156//41
f 134//41 133//41 147//41 155//41
f 132//41 131//41 146//41 154//41
f 130//41 129//41 145//41 153//41
f 128//41 127//41 144//41 152//41
f 126//41 125//41 143//41 151//41
f 124//41 123//41 142//41 150//41
f 122//41 121//41 141//41 149//41
