# Blender v2.78 (sub 0) OBJ File: 'portal1.blend'
# www.blender.org
o tutup.portal_Cylinder.003
v 0.000000 -0.691778 -1.056536
v 0.000000 0.294221 -1.056536
v 0.273452 -0.691778 -1.020535
v 0.273452 0.294221 -1.020535
v 0.528268 -0.691778 -0.914987
v 0.528268 0.294221 -0.914987
v 0.747083 -0.691778 -0.747084
v 0.747083 0.294221 -0.747084
v 0.914987 -0.691778 -0.528268
v 0.914987 0.294221 -0.528268
v 1.020535 -0.691778 -0.273452
v 1.020535 0.294221 -0.273452
v 1.056536 -0.691778 -0.000000
v 1.056536 0.294221 -0.000000
v 1.020535 -0.691778 0.273451
v 1.020535 0.294221 0.273451
v 0.914987 -0.691778 0.528268
v 0.914987 0.294221 0.528268
v 0.747084 -0.691778 0.747083
v 0.747084 0.294221 0.747083
v 0.528268 -0.691778 0.914986
v 0.528268 0.294221 0.914986
v 0.273452 -0.691778 1.020535
v 0.273452 0.294221 1.020535
v 0.000000 -0.691778 1.056535
v 0.000000 0.294221 1.056535
v -0.273451 -0.691778 1.020535
v -0.273451 0.294221 1.020535
v -0.528267 -0.691778 0.914987
v -0.528267 0.294221 0.914987
v -0.747083 -0.691778 0.747084
v -0.747083 0.294221 0.747084
v -0.914986 -0.691778 0.528268
v -0.914986 0.294221 0.528268
v -1.020535 -0.691778 0.273452
v -1.020535 0.294221 0.273452
v -1.056536 -0.691778 0.000000
v -1.056536 0.294221 0.000000
v -1.020535 -0.691778 -0.273451
v -1.020535 0.294221 -0.273451
v -0.914987 -0.691778 -0.528267
v -0.914987 0.294221 -0.528267
v -0.747084 -0.691778 -0.747083
v -0.747084 0.294221 -0.747083
v -0.528268 -0.691778 -0.914986
v -0.528268 0.294221 -0.914986
v -0.273452 -0.691778 -1.020535
v -0.273452 0.294221 -1.020535
v 0.000000 -0.691778 -1.025423
v 0.265399 -0.691778 -0.990482
v 0.512711 -0.691778 -0.888042
v 0.725083 -0.691778 -0.725083
v 0.888042 -0.691778 -0.512711
v 0.990482 -0.691778 -0.265399
v 1.025423 -0.691778 -0.000000
v 0.990482 -0.691778 0.265399
v 0.888042 -0.691778 0.512711
v 0.725083 -0.691778 0.725083
v 0.512712 -0.691778 0.888042
v 0.265399 -0.691778 0.990482
v 0.000000 -0.691778 1.025423
v -0.265398 -0.691778 0.990482
v -0.512711 -0.691778 0.888042
v -0.725083 -0.691778 0.725084
v -0.888042 -0.691778 0.512712
v -0.990482 -0.691778 0.265399
v -1.025423 -0.691778 0.000000
v -0.990482 -0.691778 -0.265398
v -0.888042 -0.691778 -0.512711
v -0.725084 -0.691778 -0.725083
v -0.512712 -0.691778 -0.888042
v -0.265400 -0.691778 -0.990482
v 0.000000 -0.691778 0.000000
v -0.528268 -0.674286 -0.914986
v -0.747084 -0.674286 -0.747083
v -0.914987 -0.674286 -0.528267
v -1.020535 -0.674286 -0.273451
v -1.056536 -0.674286 0.000000
v -1.020535 -0.674286 0.273452
v -0.914986 -0.674286 0.528268
v -0.747083 -0.674286 0.747084
v -0.528267 -0.674286 0.914987
v -0.273451 -0.674286 1.020535
v 0.000000 -0.674286 1.056535
v 0.273452 -0.674286 1.020535
v 0.528268 -0.674286 0.914986
v 0.747084 -0.674286 0.747083
v 0.914987 -0.674286 0.528268
v 1.020535 -0.674286 0.273451
v 1.056536 -0.674286 -0.000000
v 1.020535 -0.674286 -0.273452
v 0.914987 -0.674286 -0.528268
v 0.747083 -0.674286 -0.747084
v 0.528268 -0.674286 -0.914987
v 0.273452 -0.674286 -1.020535
v 0.000000 -0.674286 -1.056536
v -0.273452 -0.674286 -1.020535
v -0.000000 0.294221 -1.038609
v 0.268812 0.294221 -1.003219
v 0.519304 0.294221 -0.899462
v 0.734407 0.294221 -0.734407
v 0.899462 0.294221 -0.519304
v 1.003219 0.294221 -0.268812
v 1.038609 0.294221 -0.000000
v 1.003219 0.294221 0.268812
v 0.899462 0.294221 0.519304
v 0.734407 0.294221 0.734407
v 0.519305 0.294221 0.899461
v 0.268812 0.294221 1.003219
v 0.000000 0.294221 1.038609
v -0.268811 0.294221 1.003219
v -0.519304 0.294221 0.899462
v -0.734407 0.294221 0.734408
v -0.899461 0.294221 0.519305
v -1.003219 0.294221 0.268812
v -1.038609 0.294221 0.000000
v -1.003219 0.294221 -0.268811
v -0.899462 0.294221 -0.519304
v -0.734408 0.294221 -0.734407
v -0.519305 0.294221 -0.899461
v -0.268812 0.294221 -1.003219
v -0.000000 0.294221 -0.890915
v 0.230586 0.294221 -0.860558
v 0.445458 0.294221 -0.771556
v 0.629972 0.294221 -0.629972
v 0.771555 0.294221 -0.445458
v 0.860558 0.294221 -0.230586
v 0.890916 0.294221 -0.000000
v 0.860558 0.294221 0.230586
v 0.771555 0.294221 0.445458
v 0.629973 0.294221 0.629972
v 0.445458 0.294221 0.771555
v 0.230586 0.294221 0.860558
v 0.000000 0.294221 0.890916
v -0.230586 0.294221 0.860558
v -0.445457 0.294221 0.771556
v -0.629972 0.294221 0.629973
v -0.771555 0.294221 0.445458
v -0.860558 0.294221 0.230586
v -0.890916 0.294221 0.000000
v -0.860559 0.294221 -0.230585
v -0.771556 0.294221 -0.445457
v -0.629973 0.294221 -0.629972
v -0.445458 0.294221 -0.771555
v -0.230587 0.294221 -0.860558
v -0.000000 0.294221 -0.875600
v 0.226622 0.294221 -0.845765
v 0.437800 0.294221 -0.758292
v 0.619143 0.294221 -0.619143
v 0.758292 0.294221 -0.437800
v 0.845765 0.294221 -0.226622
v 0.875600 0.294221 -0.000000
v 0.845765 0.294221 0.226622
v 0.758292 0.294221 0.437800
v 0.619143 0.294221 0.619142
v 0.437800 0.294221 0.758292
v 0.226622 0.294221 0.845765
v 0.000000 0.294221 0.875600
v -0.226622 0.294221 0.845765
v -0.437800 0.294221 0.758292
v -0.619142 0.294221 0.619143
v -0.758292 0.294221 0.437800
v -0.845765 0.294221 0.226622
v -0.875600 0.294221 0.000000
v -0.845765 0.294221 -0.226621
v -0.758292 0.294221 -0.437799
v -0.619143 0.294221 -0.619142
v -0.437800 0.294221 -0.758292
v -0.226623 0.294221 -0.845764
v -0.000000 0.283040 -0.875600
v 0.226622 0.283040 -0.845765
v 0.437800 0.283040 -0.758292
v 0.619143 0.283040 -0.619143
v 0.758292 0.283040 -0.437800
v 0.845765 0.283040 -0.226622
v 0.875600 0.283040 -0.000000
v 0.845765 0.283040 0.226622
v 0.758292 0.283040 0.437800
v 0.619143 0.283040 0.619142
v 0.437800 0.283040 0.758292
v 0.226622 0.283040 0.845765
v 0.000000 0.283040 0.875600
v -0.226622 0.283040 0.845765
v -0.437800 0.283040 0.758292
v -0.619142 0.283040 0.619143
v -0.758292 0.283040 0.437800
v -0.845765 0.283040 0.226622
v -0.875600 0.283040 0.000000
v -0.845765 0.283040 -0.226621
v -0.758292 0.283040 -0.437799
v -0.619143 0.283040 -0.619142
v -0.437800 0.283040 -0.758292
v -0.226623 0.283040 -0.845764
v -0.000000 -0.239252 -0.875600
v 0.226622 -0.239252 -0.845765
v 0.437800 -0.239252 -0.758292
v 0.619143 -0.239252 -0.619143
v 0.758292 -0.239252 -0.437800
v 0.845765 -0.239252 -0.226622
v 0.875600 -0.239252 -0.000000
v 0.845765 -0.239252 0.226622
v 0.758292 -0.239252 0.437800
v 0.619143 -0.239252 0.619142
v 0.437800 -0.239252 0.758292
v 0.226622 -0.239252 0.845765
v 0.000000 -0.239252 0.875600
v -0.226622 -0.239252 0.845765
v -0.437800 -0.239252 0.758292
v -0.619142 -0.239252 0.619143
v -0.758292 -0.239252 0.437800
v -0.845765 -0.239252 0.226622
v -0.875600 -0.239252 0.000000
v -0.845765 -0.239252 -0.226621
v -0.758292 -0.239252 -0.437799
v -0.619143 -0.239252 -0.619142
v -0.437800 -0.239252 -0.758292
v -0.226623 -0.239252 -0.845764
v -0.000000 -0.252670 -0.875600
v 0.226622 -0.252670 -0.845765
v 0.437800 -0.252670 -0.758292
v 0.619143 -0.252670 -0.619143
v 0.758292 -0.252670 -0.437800
v 0.845765 -0.252670 -0.226622
v 0.875600 -0.252670 -0.000000
v 0.845765 -0.252670 0.226622
v 0.758292 -0.252670 0.437800
v 0.619143 -0.252670 0.619142
v 0.437800 -0.252670 0.758292
v 0.226622 -0.252670 0.845765
v 0.000000 -0.252670 0.875600
v -0.226622 -0.252670 0.845765
v -0.437800 -0.252670 0.758292
v -0.619142 -0.252670 0.619143
v -0.758292 -0.252670 0.437800
v -0.845765 -0.252670 0.226622
v -0.875600 -0.252670 0.000000
v -0.845765 -0.252670 -0.226621
v -0.758292 -0.252670 -0.437799
v -0.619143 -0.252670 -0.619142
v -0.437800 -0.252670 -0.758292
v -0.226623 -0.252670 -0.845764
v -0.000000 -0.252670 -0.858514
v 0.222200 -0.252670 -0.829261
v 0.429257 -0.252670 -0.743495
v 0.607061 -0.252670 -0.607061
v 0.743495 -0.252670 -0.429257
v 0.829261 -0.252670 -0.222200
v 0.858514 -0.252670 -0.000000
v 0.829261 -0.252670 0.222200
v 0.743495 -0.252670 0.429257
v 0.607061 -0.252670 0.607061
v 0.429257 -0.252670 0.743495
v 0.222200 -0.252670 0.829261
v 0.000000 -0.252670 0.858514
v -0.222199 -0.252670 0.829261
v -0.429257 -0.252670 0.743495
v -0.607061 -0.252670 0.607062
v -0.743495 -0.252670 0.429257
v -0.829261 -0.252670 0.222200
v -0.858514 -0.252670 0.000000
v -0.829261 -0.252670 -0.222199
v -0.743495 -0.252670 -0.429257
v -0.607062 -0.252670 -0.607061
v -0.429258 -0.252670 -0.743495
v -0.222201 -0.252670 -0.829261
v 0.000000 -0.252670 0.000000
v 0.000000 0.285206 -1.056536
v -0.273452 0.285206 -1.020535
v -0.528268 0.285206 -0.914986
v -0.747084 0.285206 -0.747083
v -0.914987 0.285206 -0.528267
v -1.020535 0.285206 -0.273451
v -1.056536 0.285206 0.000000
v -1.020535 0.285206 0.273452
v -0.914986 0.285206 0.528268
v -0.747083 0.285206 0.747084
v -0.528267 0.285206 0.914987
v -0.273451 0.285206 1.020535
v 0.000000 0.285206 1.056535
v 0.273452 0.285206 1.020535
v 0.528268 0.285206 0.914986
v 0.747084 0.285206 0.747083
v 0.914987 0.285206 0.528268
v 1.020535 0.285206 0.273451
v 1.056536 0.285206 -0.000000
v 1.020535 0.285206 -0.273452
v 0.914987 0.285206 -0.528268
v 0.747083 0.285206 -0.747084
v 0.528268 0.285206 -0.914987
v 0.273452 0.285206 -1.020535
vn 0.0000 0.0000 -1.0000
vn 0.0000 0.6789 -0.7342
vn 0.1900 0.6789 -0.7092
vn 0.2588 0.0000 -0.9659
vn 0.3671 0.6789 -0.6359
vn 0.5000 0.0000 -0.8660
vn 0.5192 0.6789 -0.5192
vn 0.7071 0.0000 -0.7071
vn 0.6359 0.6789 -0.3671
vn 0.8660 0.0000 -0.5000
vn 0.7092 0.6789 -0.1900
vn 0.9659 0.0000 -0.2588
vn 0.7342 0.6789 0.0000
vn 1.0000 0.0000 0.0000
vn 0.7092 0.6789 0.1900
vn 0.9659 0.0000 0.2588
vn 0.6359 0.6789 0.3671
vn 0.8660 0.0000 0.5000
vn 0.5192 0.6789 0.5192
vn 0.7071 0.0000 0.7071
vn 0.3671 0.6789 0.6359
vn 0.5000 0.0000 0.8660
vn 0.1900 0.6789 0.7092
vn 0.2588 0.0000 0.9659
vn 0.0000 0.6789 0.7342
vn 0.0000 0.0000 1.0000
vn -0.1900 0.6789 0.7092
vn -0.2588 0.0000 0.9659
vn -0.3671 0.6789 0.6359
vn -0.5000 0.0000 0.8660
vn -0.5192 0.6789 0.5192
vn -0.7071 0.0000 0.7071
vn -0.6359 0.6789 0.3671
vn -0.8660 0.0000 0.5000
vn -0.7092 0.6789 0.1900
vn -0.9659 0.0000 0.2588
vn -0.7342 0.6789 0.0000
vn -1.0000 0.0000 0.0000
vn -0.7092 0.6789 -0.1900
vn -0.9659 0.0000 -0.2588
vn -0.6359 0.6789 -0.3671
vn -0.8660 0.0000 -0.5000
vn -0.5192 0.6789 -0.5192
vn -0.7071 0.0000 -0.7071
vn -0.3671 0.6789 -0.6359
vn -0.5000 0.0000 -0.8660
vn 0.3671 -0.6789 0.6359
vn 0.1900 -0.6789 0.7092
vn 0.0000 -1.0000 0.0000
vn -0.1900 0.6789 -0.7092
vn -0.2588 0.0000 -0.9659
vn 0.7092 -0.6789 -0.1900
vn 0.7342 -0.6789 0.0000
vn -0.5192 -0.6789 0.5192
vn -0.6359 -0.6789 0.3671
vn -0.6359 -0.6789 -0.3671
vn -0.5192 -0.6789 -0.5192
vn 0.5192 -0.6789 -0.5192
vn 0.6359 -0.6789 -0.3671
vn 0.6359 -0.6789 0.3671
vn 0.5192 -0.6789 0.5192
vn -0.1900 -0.6789 0.7092
vn -0.3671 -0.6789 0.6359
vn -0.7342 -0.6789 0.0000
vn -0.7092 -0.6789 -0.1900
vn -0.1900 -0.6789 -0.7092
vn 0.0000 -0.6789 -0.7342
vn 0.1900 -0.6789 -0.7092
vn 0.3671 -0.6789 -0.6359
vn 0.7092 -0.6789 0.1900
vn 0.0000 -0.6789 0.7342
vn -0.7092 -0.6789 0.1900
vn -0.3671 -0.6789 -0.6359
vn 0.0000 1.0000 0.0000
vn -0.5847 0.7377 -0.3375
vn -0.4774 0.7377 -0.4774
vn 0.1747 0.7377 0.6521
vn 0.0000 0.7377 0.6751
vn -0.1747 0.7377 0.6521
vn -0.3375 0.7377 0.5847
vn 0.5847 0.7377 -0.3375
vn 0.6521 0.7377 -0.1747
vn -0.3375 0.7377 -0.5847
vn -0.4774 0.7377 0.4774
vn 0.6751 0.7377 0.0000
vn -0.1747 0.7377 -0.6521
vn -0.5847 0.7377 0.3375
vn 0.6521 0.7377 0.1747
vn 0.0000 0.7377 -0.6751
vn -0.6521 0.7377 0.1747
vn 0.5847 0.7377 0.3375
vn 0.1747 0.7377 -0.6521
vn -0.6751 0.7377 0.0000
vn 0.4774 0.7377 0.4774
vn 0.3375 0.7377 -0.5847
vn -0.6521 0.7377 -0.1747
vn 0.3375 0.7377 0.5847
vn 0.4774 0.7377 -0.4774
s 1
f 267//1 2//2 4//3 290//4
f 290//4 4//3 6//5 289//6
f 289//6 6//5 8//7 288//8
f 288//8 8//7 10//9 287//10
f 287//10 10//9 12//11 286//12
f 286//12 12//11 14//13 285//14
f 285//14 14//13 16//15 284//16
f 284//16 16//15 18//17 283//18
f 283//18 18//17 20//19 282//20
f 282//20 20//19 22//21 281//22
f 281//22 22//21 24//23 280//24
f 280//24 24//23 26//25 279//26
f 279//26 26//25 28//27 278//28
f 278//28 28//27 30//29 277//30
f 277//30 30//29 32//31 276//32
f 276//32 32//31 34//33 275//34
f 275//34 34//33 36//35 274//36
f 274//36 36//35 38//37 273//38
f 273//38 38//37 40//39 272//40
f 272//40 40//39 42//41 271//42
f 271//42 42//41 44//43 270//44
f 270//44 44//43 46//45 269//46
f 21//47 23//48 60//49 59//49
f 269//46 46//45 48//50 268//51
f 268//51 48//50 2//2 267//1
f 11//52 13//53 55//49 54//49
f 31//54 33//55 65//49 64//49
f 41//56 43//57 70//49 69//49
f 7//58 9//59 53//49 52//49
f 17//60 19//61 58//49 57//49
f 27//62 29//63 63//49 62//49
f 37//64 39//65 68//49 67//49
f 47//66 1//67 49//49 72//49
f 3//68 5//69 51//49 50//49
f 13//53 15//70 56//49 55//49
f 23//48 25//71 61//49 60//49
f 33//55 35//72 66//49 65//49
f 43//57 45//73 71//49 70//49
f 9//59 11//52 54//49 53//49
f 19//61 21//47 59//49 58//49
f 29//63 31//54 64//49 63//49
f 39//65 41//56 69//49 68//49
f 5//69 7//58 52//49 51//49
f 15//70 17//60 57//49 56//49
f 1//67 3//68 50//49 49//49
f 25//71 27//62 62//49 61//49
f 35//72 37//64 67//49 66//49
f 45//73 47//66 72//49 71//49
f 67//49 68//49 73//49
f 60//49 61//49 73//49
f 53//49 54//49 73//49
f 68//49 69//49 73//49
f 61//49 62//49 73//49
f 54//49 55//49 73//49
f 69//49 70//49 73//49
f 62//49 63//49 73//49
f 55//49 56//49 73//49
f 70//49 71//49 73//49
f 63//49 64//49 73//49
f 56//49 57//49 73//49
f 71//49 72//49 73//49
f 49//49 50//49 73//49
f 64//49 65//49 73//49
f 57//49 58//49 73//49
f 72//49 49//49 73//49
f 50//49 51//49 73//49
f 65//49 66//49 73//49
f 58//49 59//49 73//49
f 51//49 52//49 73//49
f 66//49 67//49 73//49
f 59//49 60//49 73//49
f 52//49 53//49 73//49
f 47//66 97//51 96//1 1//67
f 45//73 74//46 97//51 47//66
f 43//57 75//44 74//46 45//73
f 41//56 76//42 75//44 43//57
f 39//65 77//40 76//42 41//56
f 37//64 78//38 77//40 39//65
f 35//72 79//36 78//38 37//64
f 33//55 80//34 79//36 35//72
f 31//54 81//32 80//34 33//55
f 29//63 82//30 81//32 31//54
f 27//62 83//28 82//30 29//63
f 25//71 84//26 83//28 27//62
f 23//48 85//24 84//26 25//71
f 21//47 86//22 85//24 23//48
f 19//61 87//20 86//22 21//47
f 17//60 88//18 87//20 19//61
f 15//70 89//16 88//18 17//60
f 13//53 90//14 89//16 15//70
f 11//52 91//12 90//14 13//53
f 9//59 92//10 91//12 11//52
f 7//58 93//8 92//10 9//59
f 5//69 94//6 93//8 7//58
f 3//68 95//4 94//6 5//69
f 1//67 96//1 95//4 3//68
f 20//19 18//17 106//74 107//74
f 30//29 28//27 111//74 112//74
f 40//39 38//37 116//74 117//74
f 2//2 48//50 121//74 98//74
f 6//5 4//3 99//74 100//74
f 16//15 14//13 104//74 105//74
f 26//25 24//23 109//74 110//74
f 36//35 34//33 114//74 115//74
f 46//45 44//43 119//74 120//74
f 12//11 10//9 102//74 103//74
f 22//21 20//19 107//74 108//74
f 32//31 30//29 112//74 113//74
f 42//41 40//39 117//74 118//74
f 8//7 6//5 100//74 101//74
f 18//17 16//15 105//74 106//74
f 4//3 2//2 98//74 99//74
f 28//27 26//25 110//74 111//74
f 38//37 36//35 115//74 116//74
f 48//50 46//45 120//74 121//74
f 14//13 12//11 103//74 104//74
f 24//23 22//21 108//74 109//74
f 34//33 32//31 113//74 114//74
f 44//43 42//41 118//74 119//74
f 10//9 8//7 101//74 102//74
f 118//74 117//74 141//74 142//74
f 111//74 110//74 134//74 135//74
f 104//74 103//74 127//74 128//74
f 119//74 118//74 142//74 143//74
f 112//74 111//74 135//74 136//74
f 105//74 104//74 128//74 129//74
f 120//74 119//74 143//74 144//74
f 113//74 112//74 136//74 137//74
f 106//74 105//74 129//74 130//74
f 121//74 120//74 144//74 145//74
f 99//74 98//74 122//74 123//74
f 114//74 113//74 137//74 138//74
f 107//74 106//74 130//74 131//74
f 98//74 121//74 145//74 122//74
f 100//74 99//74 123//74 124//74
f 115//74 114//74 138//74 139//74
f 108//74 107//74 131//74 132//74
f 101//74 100//74 124//74 125//74
f 116//74 115//74 139//74 140//74
f 109//74 108//74 132//74 133//74
f 102//74 101//74 125//74 126//74
f 117//74 116//74 140//74 141//74
f 110//74 109//74 133//74 134//74
f 103//74 102//74 126//74 127//74
f 131//74 130//74 154//75 155//76
f 122//74 145//74 169//77 146//78
f 124//74 123//74 147//79 148//80
f 139//74 138//74 162//81 163//82
f 132//74 131//74 155//76 156//83
f 125//74 124//74 148//80 149//84
f 140//74 139//74 163//82 164//85
f 133//74 132//74 156//83 157//86
f 126//74 125//74 149//84 150//87
f 141//74 140//74 164//85 165//88
f 134//74 133//74 157//86 158//89
f 127//74 126//74 150//87 151//90
f 142//74 141//74 165//88 166//91
f 135//74 134//74 158//89 159//92
f 128//74 127//74 151//90 152//93
f 143//74 142//74 166//91 167//94
f 136//74 135//74 159//92 160//95
f 129//74 128//74 152//93 153//96
f 144//74 143//74 167//94 168//97
f 137//74 136//74 160//95 161//98
f 130//74 129//74 153//96 154//75
f 145//74 144//74 168//97 169//77
f 123//74 122//74 146//78 147//79
f 138//74 137//74 161//98 162//81
f 159//92 158//89 182//1 183//4
f 152//93 151//90 175//36 176//38
f 167//94 166//91 190//18 191//20
f 160//95 159//92 183//4 184//6
f 153//96 152//93 176//38 177//40
f 168//97 167//94 191//20 192//22
f 161//98 160//95 184//6 185//8
f 154//75 153//96 177//40 178//42
f 169//77 168//97 192//22 193//24
f 147//79 146//78 170//26 171//28
f 162//81 161//98 185//8 186//10
f 155//76 154//75 178//42 179//44
f 146//78 169//77 193//24 170//26
f 148//80 147//79 171//28 172//30
f 163//82 162//81 186//10 187//12
f 156//83 155//76 179//44 180//46
f 149//84 148//80 172//30 173//32
f 164//85 163//82 187//12 188//14
f 157//86 156//83 180//46 181//51
f 150//87 149//84 173//32 174//34
f 165//88 164//85 188//14 189//16
f 158//89 157//86 181//51 182//1
f 151//90 150//87 174//34 175//36
f 166//91 165//88 189//16 190//18
f 170//26 193//24 217//24 194//26
f 172//30 171//28 195//28 196//30
f 187//12 186//10 210//10 211//12
f 180//46 179//44 203//44 204//46
f 173//32 172//30 196//30 197//32
f 188//14 187//12 211//12 212//14
f 181//51 180//46 204//46 205//51
f 174//34 173//32 197//32 198//34
f 189//16 188//14 212//14 213//16
f 182//1 181//51 205//51 206//1
f 175//36 174//34 198//34 199//36
f 190//18 189//16 213//16 214//18
f 183//4 182//1 206//1 207//4
f 176//38 175//36 199//36 200//38
f 191//20 190//18 214//18 215//20
f 184//6 183//4 207//4 208//6
f 177//40 176//38 200//38 201//40
f 192//22 191//20 215//20 216//22
f 185//8 184//6 208//6 209//8
f 178//42 177//40 201//40 202//42
f 193//24 192//22 216//22 217//24
f 171//28 170//26 194//26 195//28
f 186//10 185//8 209//8 210//10
f 179//44 178//42 202//42 203//44
f 207//4 206//1 230//2 231//3
f 200//38 199//36 223//35 224//37
f 215//20 214//18 238//17 239//19
f 208//6 207//4 231//3 232//5
f 201//40 200//38 224//37 225//39
f 216//22 215//20 239//19 240//21
f 209//8 208//6 232//5 233//7
f 202//42 201//40 225//39 226//41
f 217//24 216//22 240//21 241//23
f 195//28 194//26 218//25 219//27
f 210//10 209//8 233//7 234//9
f 203//44 202//42 226//41 227//43
f 194//26 217//24 241//23 218//25
f 196//30 195//28 219//27 220//29
f 211//12 210//10 234//9 235//11
f 204//46 203//44 227//43 228//45
f 197//32 196//30 220//29 221//31
f 212//14 211//12 235//11 236//13
f 205//51 204//46 228//45 229//50
f 198//34 197//32 221//31 222//33
f 213//16 212//14 236//13 237//15
f 206//1 205//51 229//50 230//2
f 199//36 198//34 222//33 223//35
f 214//18 213//16 237//15 238//17
f 220//29 219//27 243//74 244//74
f 235//11 234//9 258//74 259//74
f 228//45 227//43 251//74 252//74
f 221//31 220//29 244//74 245//74
f 236//13 235//11 259//74 260//74
f 229//50 228//45 252//74 253//74
f 222//33 221//31 245//74 246//74
f 237//15 236//13 260//74 261//74
f 230//2 229//50 253//74 254//74
f 223//35 222//33 246//74 247//74
f 238//17 237//15 261//74 262//74
f 231//3 230//2 254//74 255//74
f 224//37 223//35 247//74 248//74
f 239//19 238//17 262//74 263//74
f 232//5 231//3 255//74 256//74
f 225//39 224//37 248//74 249//74
f 240//21 239//19 263//74 264//74
f 233//7 232//5 256//74 257//74
f 226//41 225//39 249//74 250//74
f 241//23 240//21 264//74 265//74
f 219//27 218//25 242//74 243//74
f 234//9 233//7 257//74 258//74
f 227//43 226//41 250//74 251//74
f 218//25 241//23 265//74 242//74
f 248//74 247//74 266//74
f 263//74 262//74 266//74
f 256//74 255//74 266//74
f 249//74 248//74 266//74
f 264//74 263//74 266//74
f 257//74 256//74 266//74
f 250//74 249//74 266//74
f 265//74 264//74 266//74
f 243//74 242//74 266//74
f 258//74 257//74 266//74
f 251//74 250//74 266//74
f 242//74 265//74 266//74
f 244//74 243//74 266//74
f 259//74 258//74 266//74
f 252//74 251//74 266//74
f 245//74 244//74 266//74
f 260//74 259//74 266//74
f 253//74 252//74 266//74
f 246//74 245//74 266//74
f 261//74 260//74 266//74
f 254//74 253//74 266//74
f 247//74 246//74 266//74
f 262//74 261//74 266//74
f 255//74 254//74 266//74
f 97//51 268//51 267//1 96//1
f 74//46 269//46 268//51 97//51
f 75//44 270//44 269//46 74//46
f 76//42 271//42 270//44 75//44
f 77//40 272//40 271//42 76//42
f 78//38 273//38 272//40 77//40
f 79//36 274//36 273//38 78//38
f 80//34 275//34 274//36 79//36
f 81//32 276//32 275//34 80//34
f 82//30 277//30 276//32 81//32
f 83//28 278//28 277//30 82//30
f 84//26 279//26 278//28 83//28
f 85//24 280//24 279//26 84//26
f 86//22 281//22 280//24 85//24
f 87//20 282//20 281//22 86//22
f 88//18 283//18 282//20 87//20
f 89//16 284//16 283//18 88//18
f 90//14 285//14 284//16 89//16
f 91//12 286//12 285//14 90//14
f 92//10 287//10 286//12 91//12
f 93//8 288//8 287//10 92//10
f 94//6 289//6 288//8 93//8
f 95//4 290//4 289//6 94//6
f 96//1 267//1 290//4 95//4
